<svg xmlns="http://www.w3.org/2000/svg" viewBox="0 0 193.07 30.38"><defs><style>.cls-1{fill:#e5231f;}.cls-2{fill:#fff;}</style></defs><title>Layer 2</title><g id="Layer_2" data-name="Layer 2"><g id="Layer_2-2" data-name="Layer 2"><path class="cls-1" d="M32.09,4.41a4,4,0,0,1-4.2,4.27h-3.3V.29h3.3A4,4,0,0,1,32.09,4.41ZM26.17,7.16h1.72A2.5,2.5,0,0,0,30.52,4.4a2.49,2.49,0,0,0-2.63-2.61H26.17Z"/><path class="cls-1" d="M33.28,8.68V.29h1.57V8.68Z"/><path class="cls-1" d="M41.76,2.31a2.41,2.41,0,0,0-2-.93C38.6,1.38,38,1.87,38,2.49s.87.94,1.87,1.06c1.75.22,3.39.67,3.39,2.67S41.63,8.9,39.76,8.9c-1.72,0-3-.53-3.66-2.06l1.32-.69a2.38,2.38,0,0,0,2.36,1.33c1,0,1.93-.34,1.93-1.26S40.89,5.11,39.77,5c-1.71-.2-3.3-.66-3.3-2.54S38.18,0,39.72,0A3.38,3.38,0,0,1,43,1.67Z"/><path class="cls-1" d="M51.91,7.63a4.43,4.43,0,0,1-3.19,1.25,4.14,4.14,0,0,1-4.45-4.33A4.23,4.23,0,0,1,48.72.12,4.36,4.36,0,0,1,51.81,1.4l-1.06,1a2.89,2.89,0,0,0-2-.79,2.76,2.76,0,0,0-2.89,2.92,2.69,2.69,0,0,0,2.89,2.84,3.1,3.1,0,0,0,2.11-.85Z"/><path class="cls-1" d="M57,8.72H55.35L51.86.29h1.77l2.53,6.53L58.71.29h1.77Z"/><path class="cls-1" d="M69.71,4.53A4.14,4.14,0,0,1,65.4,8.88a4.09,4.09,0,0,1-4.31-4.33,4.31,4.31,0,1,1,8.62,0Zm-7.07,0a2.76,2.76,0,1,0,5.51,0,2.77,2.77,0,1,0-5.51,0Z"/><path class="cls-1" d="M77.14,8.68H70.85V.29h6.29V1.82H72.42V3.75H77V5.23H72.42V7.12h4.72Z"/><path class="cls-1" d="M85.81,8.68H83.93L81.48,5.4H80V8.68H78.38V.28h4c2,0,3,1.09,3,2.54a2.27,2.27,0,0,1-2.12,2.4l2.54,3.35ZM80,1.76V4h2.41c1,0,1.44-.43,1.44-1.1s-.44-1.11-1.44-1.11Z"/><path class="cls-1" d="M100.38,8.68H99L98,6l-.88-2.65-.88,2.68-1,2.61H93.87L90.79.29h1.77l2,6.05,2-6h1l2.1,6.05,1.92-6h1.77Z"/><path class="cls-1" d="M110.1,8.7V5.3H106V8.7h-1.59V.3H106V3.84h4.12V.3h1.57V8.7Z"/><path class="cls-1" d="M119.13,7.1h-4.39L114,8.68H112.3L116.07.29h1.72l3.77,8.39h-1.73Zm-2.2-5-1.56,3.58h3.12Z"/><path class="cls-1" d="M123.07,1.73h-2.66V.29h6.91V1.73h-2.66v7h-1.59Z"/><path class="cls-1" d="M128.25.29h1.51L128.82,3h-1.15Z"/><path class="cls-1" d="M135.89,2.31a2.41,2.41,0,0,0-2-.93c-1.18,0-1.74.49-1.74,1.11s.86.94,1.87,1.06c1.75.22,3.38.67,3.38,2.67s-1.65,2.68-3.52,2.68c-1.72,0-3-.53-3.66-2.06l1.32-.69a2.38,2.38,0,0,0,2.36,1.33c1,0,1.93-.34,1.93-1.26S135,5.11,133.9,5c-1.72-.2-3.3-.66-3.3-2.54S132.3,0,133.85,0a3.39,3.39,0,0,1,3.3,1.67Z"/><path class="cls-1" d="M149,.28h1.58v8.4H149v0L145.19,3V8.68h-1.58V.29h1.57L149,5.49Z"/><path class="cls-1" d="M158.31,8.68H152V.29h6.29V1.82h-4.72V3.75h4.55V5.23h-4.55V7.12h4.72Z"/><path class="cls-1" d="M168.72,8.68h-1.34l-1-2.64-.88-2.65-.88,2.68-1,2.61h-1.34L159.12.29h1.78l2,6.05,2-6h1l2.1,6.05,1.92-6h1.77Z"/><path class="cls-2" d="M27.19,27.63a6.32,6.32,0,0,1-4.68-1.69,6.9,6.9,0,0,1-1.69-5.06,7.17,7.17,0,0,1,.48-2.65,6,6,0,0,1,1.32-2.09,5.71,5.71,0,0,1,2-1.36,7.26,7.26,0,0,1,5.14,0,5.72,5.72,0,0,1,2,1.32,6,6,0,0,1,1.3,2.06,7.45,7.45,0,0,1,.46,2.69,8,8,0,0,1-.5,2.92,6.15,6.15,0,0,1-1.37,2.13,5.7,5.7,0,0,1-2,1.3A6.72,6.72,0,0,1,27.19,27.63Zm.07-.8a2.79,2.79,0,0,0,1.65-.49,4.3,4.3,0,0,0,1.2-1.3,6.21,6.21,0,0,0,.76-1.86A9.25,9.25,0,0,0,31.12,21a12,12,0,0,0-.2-2.17,6.29,6.29,0,0,0-.65-1.89,3.64,3.64,0,0,0-1.22-1.33,3.28,3.28,0,0,0-1.86-.51,3.16,3.16,0,0,0-1.78.51A4,4,0,0,0,24.19,17a6.38,6.38,0,0,0-.71,1.88A10.16,10.16,0,0,0,23.25,21a13.14,13.14,0,0,0,.19,2.2A6.07,6.07,0,0,0,24.09,25a3.62,3.62,0,0,0,1.22,1.3A3.57,3.57,0,0,0,27.26,26.83Z"/><path class="cls-2" d="M36.9,17.87q0-.4,0-.81a3.45,3.45,0,0,0-.13-.75,1.81,1.81,0,0,0-.29-.59,1,1,0,0,0-.54-.34l-.44-.1L35,15.22a.2.2,0,0,1-.18-.09.36.36,0,0,1-.06-.2.37.37,0,0,1,.06-.21.19.19,0,0,1,.18-.1h.6l.55,0,.56,0h.64l1,0,.84,0,1.43,0a6.3,6.3,0,0,1,1.51.18,4,4,0,0,1,1.32.59,3,3,0,0,1,.93,1A3.09,3.09,0,0,1,44.82,18a3.47,3.47,0,0,1-.21,1.26,2.75,2.75,0,0,1-.61.91,3,3,0,0,1-.9.62,5.15,5.15,0,0,1-1.13.36c-.09,0-.13.07-.13.13s0,.11.13.16a5.75,5.75,0,0,1,1,.63,4.44,4.44,0,0,1,.68.7,3.79,3.79,0,0,1,.44.74c.1.26.19.51.27.77s.13.52.18.79.1.53.16.78a1.11,1.11,0,0,0,.32.64.68.68,0,0,0,.44.19.64.64,0,0,0,.44-.18,1.19,1.19,0,0,0,.32-.58.27.27,0,0,1,.11-.17.3.3,0,0,1,.16-.05.41.41,0,0,1,.26.09.23.23,0,0,1,.11.21,2,2,0,0,1-.78,1.38,1.81,1.81,0,0,1-.67.32,2.58,2.58,0,0,1-.73.11,2.79,2.79,0,0,1-.58-.07,1.75,1.75,0,0,1-.92-.52,1.31,1.31,0,0,1-.26-.44c-.08-.21-.15-.45-.23-.7s-.13-.51-.2-.77-.13-.51-.19-.75-.11-.47-.16-.67a3.91,3.91,0,0,0-.89-1.74,2,2,0,0,0-1.5-.54,1,1,0,0,0-.55.13.58.58,0,0,0-.23.54v2.56a3.3,3.3,0,0,0,.13,1,1.45,1.45,0,0,0,.4.62,1.55,1.55,0,0,0,.66.31,4.52,4.52,0,0,0,.9.13.21.21,0,0,1,.18.1.43.43,0,0,1,.06.22.36.36,0,0,1-.07.22.22.22,0,0,1-.19.09c-.32,0-.61,0-.89,0l-.78-.05-.72-.05c-.23,0-.46,0-.69,0a13.56,13.56,0,0,0-1.43.07,12.65,12.65,0,0,1-1.36.07.2.2,0,0,1-.18-.09.44.44,0,0,1-.06-.23A.36.36,0,0,1,35,27a.24.24,0,0,1,.18-.11,4.19,4.19,0,0,0,.87-.15,1.14,1.14,0,0,0,.53-.3,1.12,1.12,0,0,0,.26-.56A4.54,4.54,0,0,0,36.9,25ZM39,20.13c0,.33.09.52.27.58a3.33,3.33,0,0,0,.83.08,4.9,4.9,0,0,0,1.25-.14,1.74,1.74,0,0,0,.8-.48,1.9,1.9,0,0,0,.43-.85A5.86,5.86,0,0,0,42.67,18a4.91,4.91,0,0,0-.13-1.24,2,2,0,0,0-.43-.81,1.72,1.72,0,0,0-.77-.44,4.31,4.31,0,0,0-1.16-.13,1.67,1.67,0,0,0-1,.19,1,1,0,0,0-.23.77Z"/><path class="cls-2" d="M49.65,17.87a8.94,8.94,0,0,0-.07-1.12,2.1,2.1,0,0,0-.28-.81,1.3,1.3,0,0,0-.56-.5,2.61,2.61,0,0,0-1-.22.18.18,0,0,1-.17-.09.36.36,0,0,1-.06-.2.37.37,0,0,1,.06-.21.17.17,0,0,1,.17-.1h.61l.54,0,.56,0h.65c.52,0,1,0,1.54,0s1,0,1.54,0a8,8,0,0,1,2.87.5,6.84,6.84,0,0,1,2.27,1.38,6.11,6.11,0,0,1,1.5,2.1,6.49,6.49,0,0,1,.54,2.66A7,7,0,0,1,59.89,24a5.26,5.26,0,0,1-1.41,2,6,6,0,0,1-2.12,1.17,8.71,8.71,0,0,1-2.65.38c-.57,0-1.13,0-1.66-.07s-1-.07-1.46-.07h-.72l-.63,0-.61.05-.7.07a.19.19,0,0,1-.19-.09.41.41,0,0,1-.08-.24.35.35,0,0,1,.06-.19.27.27,0,0,1,.21-.11,5.9,5.9,0,0,0,.78-.16,1.28,1.28,0,0,0,.53-.29,1,1,0,0,0,.31-.5,2.89,2.89,0,0,0,.1-.8Zm2.07,6a10.28,10.28,0,0,0,.08,1.51,1.67,1.67,0,0,0,.32.85,1.25,1.25,0,0,0,.72.37,8.24,8.24,0,0,0,1.25.08,3.5,3.5,0,0,0,1.56-.35,3.36,3.36,0,0,0,1.23-1.06,5.26,5.26,0,0,0,.8-1.7A8.61,8.61,0,0,0,58,21.25a9.7,9.7,0,0,0-.28-2.47A4.21,4.21,0,0,0,56.75,17,4.06,4.06,0,0,0,55,15.89a8,8,0,0,0-2.64-.38.79.79,0,0,0-.52.14.66.66,0,0,0-.15.5Z"/><path class="cls-2" d="M71,14.68a1.29,1.29,0,0,1,.29,0c.09,0,.13.14.11.31a3,3,0,0,0,0,.33V16q0,.42,0,.81c0,.27,0,.53,0,.79a.13.13,0,0,1-.1.11.54.54,0,0,1-.21.05.58.58,0,0,1-.19,0,.18.18,0,0,1-.11-.12,7,7,0,0,0-.27-1.16,1.47,1.47,0,0,0-.38-.64,1.28,1.28,0,0,0-.65-.27,9.22,9.22,0,0,0-1.07-.07h-2a.93.93,0,0,0-.46.14.6.6,0,0,0-.19.39,6.86,6.86,0,0,0,0,.74v3.33q0,.27.09.33a.34.34,0,0,0,.18.07,9.89,9.89,0,0,0,1.39-.08,1.76,1.76,0,0,0,.75-.28,1,1,0,0,0,.35-.52,8.32,8.32,0,0,0,.14-.83.18.18,0,0,1,.13-.15.43.43,0,0,1,.22-.06.34.34,0,0,1,.2.06.16.16,0,0,1,.08.15c0,.2,0,.38,0,.54s0,.32,0,.47,0,.33,0,.5,0,.37,0,.59a8,8,0,0,0,.06,1c0,.16,0,.33,0,.52s0,.39,0,.61a.14.14,0,0,1-.09.14.47.47,0,0,1-.42,0,.17.17,0,0,1-.12-.14,8,8,0,0,0-.14-.89,1,1,0,0,0-.35-.54,1.64,1.64,0,0,0-.75-.27A12.08,12.08,0,0,0,66,21.28a.34.34,0,0,0-.18.07.35.35,0,0,0-.09.28v2.49a8.5,8.5,0,0,0,.08,1.38,1.26,1.26,0,0,0,.35.75,1.44,1.44,0,0,0,.8.33,12.28,12.28,0,0,0,1.4.07c.32,0,.61,0,.87,0a3,3,0,0,0,.6-.11,5.68,5.68,0,0,0,.65-.3,1.81,1.81,0,0,0,.47-.4,1.84,1.84,0,0,0,.31-.61,5.42,5.42,0,0,0,.2-.94.18.18,0,0,1,.12-.15.64.64,0,0,1,.24,0,.66.66,0,0,1,.25.05c.08,0,.11.09.09.16-.06.54-.11,1-.17,1.49a10.93,10.93,0,0,0-.06,1.41.25.25,0,0,1,0,.08.24.24,0,0,1-.06.09.6.6,0,0,1-.14.07.69.69,0,0,1-.22,0h-6.9c-.48,0-1,0-1.41,0l-1.25.07a.19.19,0,0,1-.18-.1.34.34,0,0,1-.07-.22.46.46,0,0,1,0-.2.28.28,0,0,1,.18-.11,3.82,3.82,0,0,0,.78-.16,1.41,1.41,0,0,0,.54-.3,1.31,1.31,0,0,0,.32-.52,2.72,2.72,0,0,0,.1-.77V17.85c0-.28,0-.55,0-.82a3.36,3.36,0,0,0-.13-.74,1.72,1.72,0,0,0-.3-.57,1,1,0,0,0-.54-.34l-.43-.1-.44-.06a.16.16,0,0,1-.16-.08.46.46,0,0,1,0-.2.51.51,0,0,1,0-.22.17.17,0,0,1,.16-.1c.42,0,.81,0,1.15,0s.74,0,1.21,0Z"/><path class="cls-2" d="M75.05,17.87q0-.4,0-.81a3.45,3.45,0,0,0-.13-.75,1.82,1.82,0,0,0-.3-.59,1,1,0,0,0-.53-.34l-.44-.1-.44-.06a.19.19,0,0,1-.17-.09.36.36,0,0,1-.06-.2.37.37,0,0,1,.06-.21.18.18,0,0,1,.17-.1h.61l.54,0,.57,0h.64l1,0,.84,0,1.44,0a6.3,6.3,0,0,1,1.51.18,4,4,0,0,1,1.32.59,3.11,3.11,0,0,1,.93,1A3.2,3.2,0,0,1,83,18a3.26,3.26,0,0,1-.22,1.26,2.58,2.58,0,0,1-.6.91,3.14,3.14,0,0,1-.9.62,5.06,5.06,0,0,1-1.14.36c-.08,0-.13.07-.13.13s0,.11.13.16a5.86,5.86,0,0,1,1,.63,4.44,4.44,0,0,1,.68.7,3.3,3.3,0,0,1,.43.74,5.89,5.89,0,0,1,.27.77c.07.26.13.52.18.79s.11.53.17.78a1.11,1.11,0,0,0,.32.64.62.62,0,0,0,.88,0,1.19,1.19,0,0,0,.32-.58.26.26,0,0,1,.1-.17.34.34,0,0,1,.17-.05.43.43,0,0,1,.26.09A.2.2,0,0,1,85,26a1.85,1.85,0,0,1-.26.81,2,2,0,0,1-.51.57,1.81,1.81,0,0,1-.67.32,2.64,2.64,0,0,1-.73.11,2.71,2.71,0,0,1-.58-.07,1.81,1.81,0,0,1-.52-.2,2.15,2.15,0,0,1-.41-.32,1.48,1.48,0,0,1-.25-.44c-.08-.21-.16-.45-.23-.7s-.14-.51-.2-.77-.13-.51-.19-.75l-.16-.67a3.91,3.91,0,0,0-.89-1.74,2,2,0,0,0-1.5-.54,1,1,0,0,0-.55.13.56.56,0,0,0-.23.54v2.56a3.3,3.3,0,0,0,.13,1,1.45,1.45,0,0,0,.4.62,1.55,1.55,0,0,0,.66.31,4.41,4.41,0,0,0,.9.13.21.21,0,0,1,.18.1.43.43,0,0,1,.06.22.44.44,0,0,1-.07.22.22.22,0,0,1-.19.09c-.32,0-.61,0-.89,0l-.78-.05-.72-.05c-.23,0-.46,0-.69,0a13.43,13.43,0,0,0-1.43.07,12.7,12.7,0,0,1-1.37.07.2.2,0,0,1-.17-.09.44.44,0,0,1-.06-.23.46.46,0,0,1,0-.2.28.28,0,0,1,.18-.11,4.18,4.18,0,0,0,.88-.15,1.14,1.14,0,0,0,.53-.3,1.12,1.12,0,0,0,.26-.56,4.54,4.54,0,0,0,.07-.91Zm2.07,2.26c0,.33.09.52.27.58a3.33,3.33,0,0,0,.83.08,4.9,4.9,0,0,0,1.25-.14,1.74,1.74,0,0,0,.8-.48,1.79,1.79,0,0,0,.42-.85A5.25,5.25,0,0,0,80.82,18a5.42,5.42,0,0,0-.13-1.24,2,2,0,0,0-.43-.81,1.72,1.72,0,0,0-.77-.44,4.36,4.36,0,0,0-1.16-.13,1.65,1.65,0,0,0-1,.19,1,1,0,0,0-.23.77Z"/><path class="cls-2" d="M126.21,27.63a6.29,6.29,0,0,1-4.68-1.69,6.86,6.86,0,0,1-1.69-5.06,7.38,7.38,0,0,1,.47-2.65,6.18,6.18,0,0,1,1.33-2.09,5.76,5.76,0,0,1,2-1.36,6.87,6.87,0,0,1,2.6-.48,6.77,6.77,0,0,1,2.55.46,5.82,5.82,0,0,1,2,1.32,6.13,6.13,0,0,1,1.3,2.06,7.67,7.67,0,0,1,.46,2.69,8,8,0,0,1-.5,2.92,6.15,6.15,0,0,1-1.37,2.13,5.7,5.7,0,0,1-2,1.3A6.72,6.72,0,0,1,126.21,27.63Zm.07-.8a2.84,2.84,0,0,0,1.65-.49,4.3,4.3,0,0,0,1.2-1.3,6.47,6.47,0,0,0,.75-1.86,9.25,9.25,0,0,0,.26-2.19,12,12,0,0,0-.2-2.17,6.29,6.29,0,0,0-.65-1.89,3.64,3.64,0,0,0-1.22-1.33,3.28,3.28,0,0,0-1.86-.51,3.16,3.16,0,0,0-1.78.51A4.1,4.1,0,0,0,123.2,17a6.66,6.66,0,0,0-.7,1.88,10.16,10.16,0,0,0-.23,2.14,12.17,12.17,0,0,0,.19,2.2,5.82,5.82,0,0,0,.65,1.87,3.62,3.62,0,0,0,1.22,1.3A3.53,3.53,0,0,0,126.28,26.83Z"/><path class="cls-2" d="M135.76,16.75a1.7,1.7,0,0,0-.09-.57,1.11,1.11,0,0,0-.3-.45,1.4,1.4,0,0,0-.54-.31,3.28,3.28,0,0,0-.81-.17.15.15,0,0,1-.15-.1.51.51,0,0,1-.05-.22.46.46,0,0,1,.05-.21.18.18,0,0,1,.17-.1h.71l1,0,.93.08c.29,0,.46.09.5.15L144.84,24s.07.05.14,0,.09-.06.09-.13V18.07c0-.26,0-.51,0-.75s0-.47-.05-.69a2.55,2.55,0,0,0-.1-.51,2.06,2.06,0,0,0-.19-.44.69.69,0,0,0-.26-.25,1,1,0,0,0-.39-.12l-.58-.06a.15.15,0,0,1-.15-.1.59.59,0,0,1-.05-.23.46.46,0,0,1,.05-.2.15.15,0,0,1,.15-.1,8.4,8.4,0,0,1,1,.06c.35,0,.7.05,1.06.05s.65,0,1-.05a8.83,8.83,0,0,1,1.09-.06.19.19,0,0,1,.17.1.43.43,0,0,1,.06.22.4.4,0,0,1-.06.22.2.2,0,0,1-.17.09l-.54.06a.72.72,0,0,0-.35.1.71.71,0,0,0-.25.24,2.17,2.17,0,0,0-.25.47,2.7,2.7,0,0,0-.14.63c0,.27-.06.55-.08.86s0,.6,0,.91v9s-.05.08-.16.11a1.12,1.12,0,0,1-.32,0,.65.65,0,0,1-.2,0,.15.15,0,0,1-.12-.08L137,17.9a.22.22,0,0,0-.18-.06c-.09,0-.13.05-.13.15v6.92a4,4,0,0,0,.11,1.05,1.2,1.2,0,0,0,.32.57,1.12,1.12,0,0,0,.55.25c.21,0,.47.09.76.13a.23.23,0,0,1,.16.11.46.46,0,0,1,0,.21.37.37,0,0,1-.06.21.21.21,0,0,1-.17.1,8.18,8.18,0,0,1-.93-.07,10.12,10.12,0,0,0-1.19-.06,11.76,11.76,0,0,0-1.27.06,9.27,9.27,0,0,1-.94.07.21.21,0,0,1-.17-.1.43.43,0,0,1-.06-.22.46.46,0,0,1,.05-.2.23.23,0,0,1,.18-.11l.82-.12a1.14,1.14,0,0,0,.54-.26,1.17,1.17,0,0,0,.28-.57,5.58,5.58,0,0,0,.08-1.05Z"/><path class="cls-2" d="M150.85,17.54a6.94,6.94,0,0,0-.07-1,1.66,1.66,0,0,0-.25-.69,1.16,1.16,0,0,0-.55-.41,3.32,3.32,0,0,0-.93-.18.2.2,0,0,1-.18-.09.4.4,0,0,1-.06-.22.43.43,0,0,1,.06-.22.19.19,0,0,1,.18-.1q.6,0,1.38.06c.52,0,1,.05,1.46.05.26,0,.51,0,.75,0l.68,0,.68,0,.73,0a.16.16,0,0,1,.16.09.41.41,0,0,1,.05.19.48.48,0,0,1-.06.24.18.18,0,0,1-.17.11,4.13,4.13,0,0,0-1,.16,1.09,1.09,0,0,0-.54.38,1.56,1.56,0,0,0-.24.68,6.32,6.32,0,0,0-.07,1.06v6.61a7.36,7.36,0,0,0,.06,1,2,2,0,0,0,.21.68,1.21,1.21,0,0,0,.41.43,2.08,2.08,0,0,0,.67.26,4.77,4.77,0,0,0,.6.09q.33,0,.69,0a5,5,0,0,0,1.16-.12,2.06,2.06,0,0,0,.85-.42,2.43,2.43,0,0,0,.62-.82,6.65,6.65,0,0,0,.47-1.34.18.18,0,0,1,.12-.15.61.61,0,0,1,.24,0,.66.66,0,0,1,.25,0,.13.13,0,0,1,.09.15c-.06.54-.12,1.09-.17,1.65a14.27,14.27,0,0,0-.06,1.56.25.25,0,0,1,0,.08.24.24,0,0,1-.06.09l-.14.07a.69.69,0,0,1-.22,0H151.8c-.5,0-1,0-1.43,0l-1.34.08a.23.23,0,0,1-.2-.09.35.35,0,0,1,0-.42.25.25,0,0,1,.2-.12,8.54,8.54,0,0,0,.94-.16,1.06,1.06,0,0,0,.55-.27,1,1,0,0,0,.26-.54,6,6,0,0,0,.07-1V17.55Z"/><path class="cls-2" d="M162.38,17.54a6,6,0,0,0-.07-1,1.66,1.66,0,0,0-.25-.68,1.31,1.31,0,0,0-.55-.41,3.32,3.32,0,0,0-.93-.18.18.18,0,0,1-.17-.1.43.43,0,0,1-.06-.22.37.37,0,0,1,.06-.21.18.18,0,0,1,.17-.1q.6,0,1.38.06c.52,0,1,.05,1.46.05.27,0,.52,0,.75,0l.68,0,.67,0,.74,0a.17.17,0,0,1,.17.1.36.36,0,0,1,0,.21.57.57,0,0,1-.07.22.17.17,0,0,1-.15.1,4.13,4.13,0,0,0-.95.16,1.15,1.15,0,0,0-.55.39,1.4,1.4,0,0,0-.25.67,10.1,10.1,0,0,0-.05,1.07V25a5.05,5.05,0,0,0,.07,1,1,1,0,0,0,.27.54,1.22,1.22,0,0,0,.57.28,5.82,5.82,0,0,0,.92.14.31.31,0,0,1,.19.12.43.43,0,0,1,.06.22.36.36,0,0,1-.06.2.23.23,0,0,1-.21.09,13.55,13.55,0,0,1-1.45-.07,12.57,12.57,0,0,0-1.37-.07c-.48,0-1,0-1.49.07s-1,.07-1.39.07a.2.2,0,0,1-.18-.09.46.46,0,0,1,0-.2.54.54,0,0,1,0-.22.29.29,0,0,1,.18-.12,5.75,5.75,0,0,0,.94-.14,1.25,1.25,0,0,0,.55-.28,1,1,0,0,0,.26-.54,5.05,5.05,0,0,0,.07-1Z"/><path class="cls-2" d="M169.45,16.75a1.48,1.48,0,0,0-.1-.57,1.2,1.2,0,0,0-.29-.45,1.56,1.56,0,0,0-.54-.31,3.37,3.37,0,0,0-.82-.17.15.15,0,0,1-.15-.1.51.51,0,0,1,0-.22.46.46,0,0,1,.05-.21.16.16,0,0,1,.16-.1h.72l1,0,.92.08a1,1,0,0,1,.51.15L178.53,24s.07.05.13,0a.11.11,0,0,0,.1-.13V18.07c0-.26,0-.51,0-.75s0-.47,0-.69a2,2,0,0,0-.1-.51,1.67,1.67,0,0,0-.18-.44.88.88,0,0,0-.26-.25,1.12,1.12,0,0,0-.39-.12l-.58-.06a.15.15,0,0,1-.15-.1.59.59,0,0,1-.05-.23.46.46,0,0,1,.05-.2.15.15,0,0,1,.15-.1,8.54,8.54,0,0,1,1,.06c.35,0,.7.05,1.06.05s.65,0,1-.05a9,9,0,0,1,1.1-.06.19.19,0,0,1,.17.1.43.43,0,0,1,.06.22.4.4,0,0,1-.06.22.2.2,0,0,1-.17.09l-.55.06a.68.68,0,0,0-.34.1.64.64,0,0,0-.25.24,2.64,2.64,0,0,0-.26.47,2.7,2.7,0,0,0-.14.63c0,.27-.06.55-.08.86s0,.6,0,.91,0,.56,0,.79v8.23s-.05.08-.15.11a1.24,1.24,0,0,1-.33,0,.58.58,0,0,1-.19,0,.15.15,0,0,1-.12-.08l-8.18-9.69a.21.21,0,0,0-.17-.06c-.09,0-.13.05-.13.15v6.92a4.12,4.12,0,0,0,.1,1.05,1.21,1.21,0,0,0,.33.57,1,1,0,0,0,.54.25c.22,0,.47.09.76.13a.23.23,0,0,1,.17.11.46.46,0,0,1,0,.21.37.37,0,0,1-.06.21.21.21,0,0,1-.18.1,8.19,8.19,0,0,1-.92-.07,10.24,10.24,0,0,0-1.19-.06,12.09,12.09,0,0,0-1.28.06,9.07,9.07,0,0,1-.94.07.19.19,0,0,1-.16-.1.43.43,0,0,1-.06-.22.46.46,0,0,1,.05-.2.21.21,0,0,1,.17-.11l.83-.12a1.06,1.06,0,0,0,.53-.26,1.09,1.09,0,0,0,.28-.57,4.74,4.74,0,0,0,.09-1.05Z"/><path class="cls-2" d="M191.87,14.68a1.23,1.23,0,0,1,.29,0c.1,0,.13.14.11.31a1.69,1.69,0,0,0,0,.33c0,.11,0,.24,0,.37V16q0,.42,0,.81c0,.27,0,.53,0,.79,0,.05,0,.09-.1.11a.46.46,0,0,1-.21.05.58.58,0,0,1-.19,0,.21.21,0,0,1-.11-.12,8.33,8.33,0,0,0-.26-1.16,1.59,1.59,0,0,0-.39-.64,1.25,1.25,0,0,0-.65-.27,9.22,9.22,0,0,0-1.07-.07h-2a.86.86,0,0,0-.46.14.52.52,0,0,0-.19.39,4.71,4.71,0,0,0,0,.74v3.33q0,.27.09.33a.34.34,0,0,0,.19.07,9.73,9.73,0,0,0,1.38-.08,1.81,1.81,0,0,0,.76-.28.94.94,0,0,0,.34-.52,6.16,6.16,0,0,0,.14-.83.2.2,0,0,1,.13-.15.44.44,0,0,1,.23-.06.33.33,0,0,1,.19.06.15.15,0,0,1,.08.15c0,.2,0,.38,0,.54s0,.32-.05.47,0,.33,0,.5,0,.37,0,.59a8,8,0,0,0,.06,1c0,.16,0,.33.05.52s0,.39,0,.61a.14.14,0,0,1-.09.14.35.35,0,0,1-.2,0,.4.4,0,0,1-.22,0,.17.17,0,0,1-.12-.14,6.2,6.2,0,0,0-.14-.89,1,1,0,0,0-.34-.54,1.68,1.68,0,0,0-.76-.27,11.89,11.89,0,0,0-1.38-.07.34.34,0,0,0-.19.07.35.35,0,0,0-.09.28v2.49a8.5,8.5,0,0,0,.08,1.38,1.26,1.26,0,0,0,.35.75,1.44,1.44,0,0,0,.8.33,12.55,12.55,0,0,0,1.4.07c.32,0,.61,0,.87,0a3,3,0,0,0,.6-.11,5,5,0,0,0,.65-.3,1.81,1.81,0,0,0,.47-.4,1.85,1.85,0,0,0,.32-.61,5.52,5.52,0,0,0,.19-.94.2.2,0,0,1,.13-.15.59.59,0,0,1,.23,0,.62.62,0,0,1,.25.05c.08,0,.11.09.1.16-.07.54-.12,1-.17,1.49a9.38,9.38,0,0,0-.07,1.41.25.25,0,0,1,0,.08.24.24,0,0,1-.06.09.5.5,0,0,1-.13.07.75.75,0,0,1-.23,0h-6.89c-.49,0-1,0-1.42,0l-1.25.07a.19.19,0,0,1-.18-.1.34.34,0,0,1-.07-.22.46.46,0,0,1,0-.2.28.28,0,0,1,.18-.11,3.82,3.82,0,0,0,.78-.16,1.41,1.41,0,0,0,.54-.3,1.31,1.31,0,0,0,.32-.52,2.4,2.4,0,0,0,.1-.77V17.85c0-.28,0-.55,0-.82a3.36,3.36,0,0,0-.13-.74,1.7,1.7,0,0,0-.29-.57,1,1,0,0,0-.54-.34l-.44-.1-.43-.06a.18.18,0,0,1-.17-.08.46.46,0,0,1-.05-.2.4.4,0,0,1,.06-.22.16.16,0,0,1,.16-.1c.42,0,.8,0,1.15,0s.74,0,1.2,0Z"/><path class="cls-2" d="M.06,24c-.17-.28.08-.82.12-.95.26-.71,2.2-4.5,2.82-5.63a.27.27,0,0,1,.31-.17.85.85,0,0,1,.75.59c.07.48.19,1.5.3,2.63,0,.09.24.21.24.38s-.19.37-.17.48a19.45,19.45,0,0,1,.11,3c-.07.31-.73.38-.77.05-.11-.79-.18-1.55-.32-2.77-.51.2-1.45.55-1.89.78C1.29,22.93,1,23.42.79,24A.5.5,0,0,1,.06,24Zm3.26-3.18c-.07-.43-.14-1.19-.17-1.8-.31.58-.95,1.92-1.17,2.36Z"/><path class="cls-2" d="M7.72,19.75c.56.8.53,4.24,1.1,4.24.27,0,.47-.46.59-.7a22.27,22.27,0,0,0,1.16-4.23c.21-.11.49.19.52.34.32.87-.31,2.55-.75,3.91-.24.71-.75,1.45-1.57,1.45a1.1,1.1,0,0,1-1-.56A12.21,12.21,0,0,1,7.1,21c-.48,1.2-.84,2.45-1,2.71a.74.74,0,0,1-.8.4c-.26-.52.37-2.76,1.07-4.19C6.65,19.32,7.59,19.55,7.72,19.75Z"/><path class="cls-2" d="M13.47,18.14a2.31,2.31,0,0,1,1.37-.63c1.11,0,1.38.92,1.29,1.89-.14,1.67-1.79,4.82-3.58,4.82-.54,0-.83-.07-1-.34a3.16,3.16,0,0,1,.06-1.2c.19-.93.82-3.42,1.17-4.44C12.88,17.83,13.16,17.94,13.47,18.14Zm1.37.26c-.54,0-1.12.75-1.5,1.43a29.28,29.28,0,0,0-.7,3c0,.26-.09.46.19.46C13.85,23.24,16,18.4,14.84,18.4Z"/><path class="cls-2" d="M99,15.74a.48.48,0,0,1,.49.63c-.16.9-1.38,4.11-2.42,4.11a.59.59,0,0,1-.56-.38,5.39,5.39,0,0,1-.25-1.7c-.18.4-.65,1.69-1.14,1.69a.57.57,0,0,1-.61-.61,15.7,15.7,0,0,0-.07-3.14c0-.31-.06-.48.12-.48a.66.66,0,0,1,.63.35,6.65,6.65,0,0,1,.21,2.41c.24-.42.69-1.85,1.22-1.85.28,0,.41.06.45.3.13.69,0,1.51.15,2.23C97.89,19,98.76,16.48,99,15.74Z"/><path class="cls-2" d="M101.25,15.53c-.12,1.37-.91,3-.9,4,0,.11,0,.2,0,.29a.28.28,0,0,1-.29.24c-.14,0-.32-.11-.42-.41-.33-1.12.6-3.27.6-4.65C100.55,14.93,101.29,15.15,101.25,15.53Z"/><path class="cls-2" d="M103.46,14.71a6.66,6.66,0,0,1,3.06-.27c.36.09.5.22.5.66,0,.11,0,.05-.29,0a4.52,4.52,0,0,0-1.75,0,41.29,41.29,0,0,0-.8,5.24c0,.29,0,.55-.34.55-.48,0-.59-.49-.59-1.05a39.73,39.73,0,0,1,.77-4.53,15.18,15.18,0,0,1-2.17.51c-.12,0-.35-.28-.21-.65C102.11,15,103,14.85,103.46,14.71Z"/><path class="cls-2" d="M109.74,17.06c.18-.53.38-1,.53-1.56.07-.25.18-.47.53-.47.5,0,.1,1.19-.1,2-.28,1.18-1,4.06-1.42,4.06s-.34-.81-.17-1.45a15.21,15.21,0,0,0,.35-1.5l-2.16.3c0,.31,0,1.14,0,1.43a.38.38,0,0,1-.63.2c-.28-.23-.27-1.15-.3-1.5a1.58,1.58,0,0,1-.46,0c-.22-.06-.33-.48-.33-.66s0-.15.43-.18c.27,0,.42,0,.5-.42.1-.71.25-1.57.48-1.57s.6.12.6.48c0,.2-.17.93-.22,1.36C107.93,17.5,109.43,17.42,109.74,17.06Z"/><path class="cls-2" d="M95.43,25.27a12.55,12.55,0,0,0,.53,3A14,14,0,0,0,98.7,25c.21-.32.29-.57.51-.91.11-.16.38.11.37.43a2,2,0,0,1-.24.91c-.37.77-2.47,3.94-3.32,3.94A1.09,1.09,0,0,1,95.3,29c-.64-.71-.91-3.49-.91-4.06a.37.37,0,0,1,.38-.27A.61.61,0,0,1,95.43,25.27Z"/><path class="cls-2" d="M101.13,24.53c-.12,1.37-.91,3-.9,4,0,.11,0,.2,0,.29a.28.28,0,0,1-.29.24c-.14,0-.32-.11-.42-.41-.33-1.12.6-3.27.6-4.65C100.43,23.93,101.17,24.15,101.13,24.53Z"/><path class="cls-2" d="M100.16,30c0-.14.12-.08.19-.09a4.57,4.57,0,0,0,2.48-1.44.71.71,0,0,0-.32-1.05c-.56-.35-1.31-.81-1.21-1.54.13-.94,1.61-1.79,2.49-1.79.41,0,.64.2.64.55,0,.18-.08.08-.24.08-.64,0-1.94.5-2.16,1.11s1.07.91,1.52,1.7a1.09,1.09,0,0,1-.12,1.24,5.06,5.06,0,0,1-2.78,1.62C100.39,30.4,100.15,30.33,100.16,30Z"/><path class="cls-2" d="M104,29c-.14-.24.07-.71.11-.82.21-.61,1.88-3.85,2.41-4.82.08-.16.16-.14.26-.14a.73.73,0,0,1,.65.5c.06.41.16,1.28.25,2.26,0,.07.21.18.21.32s-.16.31-.15.41a16.12,16.12,0,0,1,.1,2.54c-.06.26-.62.32-.66,0-.1-.69-.16-1.33-.28-2.38-.43.17-1.23.47-1.62.67-.22.5-.44.92-.65,1.38C104.54,29.19,104.09,29.16,104,29Zm2.8-2.72c-.06-.38-.12-1-.15-1.55-.26.5-.81,1.64-1,2Z"/></g></g></svg>